HIERARCHY
ROOT hip
{
  OFFSET 0 0 0
  CHANNELS 6 Xposition Yposition Zposition Zrotation Yrotation Xrotation
  JOINT abdomen
  {
    OFFSET 0 20.6881 -0.73152
    CHANNELS 3 Zrotation Xrotation Yrotation
    JOINT chest
    {
      OFFSET 0 11.7043 -0.48768
      CHANNELS 3 Zrotation Xrotation Yrotation
      JOINT neck
      {
        OFFSET 0 22.1894 -2.19456
        CHANNELS 3 Zrotation Xrotation Yrotation
        JOINT head
        {
          OFFSET -0.24384 7.07133 1.2192
          CHANNELS 3 Zrotation Xrotation Yrotation
          JOINT leftEye
          {
            OFFSET 4.14528 8.04674 8.04672
            CHANNELS 3 Zrotation Xrotation Yrotation
            End Site
            {
              OFFSET 1 0 0
            }
          }
          JOINT rightEye
          {
            OFFSET -3.6576 8.04674 8.04672
            CHANNELS 3 Zrotation Xrotation Yrotation
            End Site
            {
              OFFSET 1 0 0
            }
          }
        }
      }
      JOINT rCollar
      {
        OFFSET -2.68224 19.2634 -4.8768
        CHANNELS 3 Zrotation Xrotation Yrotation
        JOINT rShldr
        {
          OFFSET -8.77824 -1.95073 1.46304
          CHANNELS 3 Zrotation Xrotation Yrotation
          JOINT rForeArm
          {
            OFFSET -28.1742 -1.7115 0.48768
            CHANNELS 3 Zrotation Xrotation Yrotation
            JOINT rHand
            {
              OFFSET -22.5879 0.773209 7.07136
              CHANNELS 3 Zrotation Xrotation Yrotation
              JOINT rThumb1
              {
                OFFSET -1.2192 -0.487915 3.41376
                CHANNELS 3 Zrotation Xrotation Yrotation
                JOINT rThumb2
                {
                  OFFSET -3.37035 -0.52449 3.41376
                  CHANNELS 3 Zrotation Xrotation Yrotation
                  End Site
                  {
                    OFFSET -1.78271 -1.18214 1.43049
                  }
                }
              }
              JOINT rIndex1
              {
                OFFSET -7.75947 0.938293 5.60832
                CHANNELS 3 Zrotation Xrotation Yrotation
                JOINT rIndex2
                {
                  OFFSET -2.54057 -0.884171 1.56538
                  CHANNELS 3 Zrotation Xrotation Yrotation
                  End Site
                  {
                    OFFSET -1.62519 -0.234802 1.16502
                  }
                }
              }
              JOINT rMid1
              {
                OFFSET -8.24714 1.18213 3.41376
                CHANNELS 3 Zrotation Xrotation Yrotation
                JOINT rMid2
                {
                  OFFSET -3.10165 -0.590103 1.0647
                  CHANNELS 3 Zrotation Xrotation Yrotation
                  End Site
                  {
                    OFFSET -2.48547 -0.328903 0.83742
                  }
                }
              }
              JOINT rRing1
              {
                OFFSET -8.82822 0.546677 1.51678
                CHANNELS 3 Zrotation Xrotation Yrotation
                JOINT rRing2
                {
                  OFFSET -2.60934 -0.819778 -0.0198488
                  CHANNELS 3 Zrotation Xrotation Yrotation
                  End Site
                  {
                    OFFSET -2.33842 -0.294052 0.168128
                  }
                }
              }
              JOINT rPinky1
              {
                OFFSET -8.27202 -0.0477905 -0.4584
                CHANNELS 3 Zrotation Xrotation Yrotation
                JOINT rPinky2
                {
                  OFFSET -1.82734 -0.647385 -0.700984
                  CHANNELS 3 Zrotation Xrotation Yrotation
                  End Site
                  {
                    OFFSET -1.69225 -0.51767 -0.607171
                  }
                }
              }
            }
          }
        }
      }
      JOINT lCollar
      {
        OFFSET 2.68224 19.2634 -4.8768
        CHANNELS 3 Zrotation Xrotation Yrotation
        JOINT lShldr
        {
          OFFSET 8.77824 -1.95073 1.46304
          CHANNELS 3 Zrotation Xrotation Yrotation
          JOINT lForeArm
          {
            OFFSET 28.1742 -1.7115 0.48768
            CHANNELS 3 Zrotation Xrotation Yrotation
            JOINT lHand
            {
              OFFSET 22.5879 0.773209 7.07136
              CHANNELS 3 Zrotation Xrotation Yrotation
              JOINT lThumb1
              {
                OFFSET 1.2192 -0.487915 3.41376
                CHANNELS 3 Zrotation Xrotation Yrotation
                JOINT lThumb2
                {
                  OFFSET 3.37035 -0.52449 3.41376
                  CHANNELS 3 Zrotation Xrotation Yrotation
                  End Site
                  {
                    OFFSET 1.78271 -1.18214 1.43049
                  }
                }
              }
              JOINT lIndex1
              {
                OFFSET 7.75947 0.938293 5.60832
                CHANNELS 3 Zrotation Xrotation Yrotation
                JOINT lIndex2
                {
                  OFFSET 2.54057 -0.884171 1.56538
                  CHANNELS 3 Zrotation Xrotation Yrotation
                  End Site
                  {
                    OFFSET 1.62519 -0.234802 1.16502
                  }
                }
              }
              JOINT lMid1
              {
                OFFSET 8.24714 1.18213 3.41376
                CHANNELS 3 Zrotation Xrotation Yrotation
                JOINT lMid2
                {
                  OFFSET 3.10165 -0.590103 1.0647
                  CHANNELS 3 Zrotation Xrotation Yrotation
                  End Site
                  {
                    OFFSET 2.48547 -0.328903 0.83742
                  }
                }
              }
              JOINT lRing1
              {
                OFFSET 8.82822 0.546677 1.51678
                CHANNELS 3 Zrotation Xrotation Yrotation
                JOINT lRing2
                {
                  OFFSET 2.60934 -0.819778 -0.0198488
                  CHANNELS 3 Zrotation Xrotation Yrotation
                  End Site
                  {
                    OFFSET 2.33842 -0.294052 0.168128
                  }
                }
              }
              JOINT lPinky1
              {
                OFFSET 8.27202 -0.0477905 -0.4584
                CHANNELS 3 Zrotation Xrotation Yrotation
                JOINT lPinky2
                {
                  OFFSET 1.82734 -0.647385 -0.700984
                  CHANNELS 3 Zrotation Xrotation Yrotation
                  End Site
                  {
                    OFFSET 1.69225 -0.51767 -0.607171
                  }
                }
              }
            }
          }
        }
      }
    }
  }
  JOINT rButtock
  {
    OFFSET -8.77824 4.35084 1.2192
    CHANNELS 3 Zrotation Xrotation Yrotation
    JOINT rThigh
    {
      OFFSET 0 -1.70687 -2.19456
      CHANNELS 3 Zrotation Xrotation Yrotation
      JOINT rShin
      {
        OFFSET 0 -36.8199 0.73152
        CHANNELS 3 Zrotation Xrotation Yrotation
        JOINT rFoot
        {
          OFFSET 0.73152 -45.1104 -5.12064
          CHANNELS 3 Zrotation Xrotation Yrotation
          End Site
          {
            OFFSET -1.1221 -3.69964 12.103
          }
        }
      }
    }
  }
  JOINT lButtock
  {
    OFFSET 8.77824 4.35084 1.2192
    CHANNELS 3 Zrotation Xrotation Yrotation
    JOINT lThigh
    {
      OFFSET 0 -1.70687 -2.19456
      CHANNELS 3 Zrotation Xrotation Yrotation
      JOINT lShin
      {
        OFFSET 0 -36.8199 0.73152
        CHANNELS 3 Zrotation Xrotation Yrotation
        JOINT lFoot
        {
          OFFSET -0.73152 -45.1104 -5.12064
          CHANNELS 3 Zrotation Xrotation Yrotation
          End Site
          {
            OFFSET 1.1221 -3.69964 12.103
          }
        }
      }
    }
  }
}
MOTION
Frames:	4
Frame Time:	0.00833333
-130.377 81.1727 1.97509 -897.372 80.3186 902.098 0.732299 7.90464 -2.07832 -0.11921 1.39917 -0.478532 5.14433 6.5183 0.938819 -3.57058 -5.42254 1.35158 -0.0 0.0 0.0 -0.0 0.0 0.0 2.61151e-14 -2.16595e-13 -2.17523e-13 82.1704 35.3266 2.10007 -10.9805 -4.76298 19.6472 -0.0513764 -7.0256 -0.991184 5.15219e-10 2.64788e-10 -2.09674e-09 9.02352e-10 4.59517e-10 -3.62195e-09 5.15226e-10 2.64781e-10 -2.09675e-09 7.73091 5.47488 0.417314 5.15223e-10 2.64778e-10 -2.09674e-09 2.90554 0.965183 0.102902 5.15223e-10 2.64777e-10 -2.09674e-09 10.2786 0.731801 0.0259123 5.15208e-10 2.64779e-10 -2.09674e-09 2.22167 -0.733487 -0.20892 2.61235e-14 -2.16596e-13 -2.17669e-13 -66.935 36.4941 -18.3781 13.8024 -6.8047 -25.1427 0.0103564 -2.82641 0.397568 6.64066e-10 -5.86904e-10 4.28886e-10 1.15098e-09 -1.01563e-09 7.41019e-10 6.6406e-10 -5.86902e-10 4.28896e-10 -7.73091 5.47488 -0.417314 6.64066e-10 -5.86904e-10 4.28888e-10 -2.90554 0.965183 -0.102902 6.64061e-10 -5.86902e-10 4.28882e-10 -10.2786 0.731801 -0.0259123 6.64073e-10 -5.86904e-10 4.28875e-10 -2.22167 -0.733487 0.20892 -2.03217e-16 0.0 -3.88251e-19 11.242 -18.7107 8.69723 -0.25434 40.3363 1.15282 -21.3479 -30.552 -33.5553 2.03217e-16 0.0 3.88251e-19 -2.07642 -13.5085 6.70735 0.245163 40.327 -1.32345 21.902 -31.3975 33.2986
-130.254 81.1536 2.29205 -894.061 80.4174 905.241 1.83292 8.02078 -2.2787 -0.260198 1.23339 -0.507708 5.11362 6.52803 0.99749 -3.61438 -5.39085 1.47226 -0.0 0.0 0.0 -0.0 0.0 0.0 5.73537e-14 2.80126e-14 -3.02846e-13 82.4974 35.1689 1.66672 -11.2605 -4.94606 20.1833 -0.0899347 -8.81999 -1.24866 5.34013e-10 3.15809e-10 -3.12459e-09 9.40875e-10 5.48577e-10 -5.39805e-09 5.34019e-10 3.15803e-10 -3.1246e-09 7.73091 5.47488 0.417314 5.34016e-10 3.15802e-10 -3.1246e-09 2.90554 0.965183 0.102902 5.34016e-10 3.158e-10 -3.12459e-09 10.2786 0.731801 0.0259123 5.34003e-10 3.15802e-10 -3.12459e-09 2.22167 -0.733487 -0.20892 5.73962e-14 2.80107e-14 -3.02935e-13 -66.6414 38.1211 -18.9095 14.3703 -7.26042 -26.298 0.0116805 -3.01371 0.423962 6.11852e-10 -6.134e-10 7.31508e-10 1.06223e-09 -1.0611e-09 1.26443e-09 6.11845e-10 -6.134e-10 7.31518e-10 -7.73091 5.47488 -0.417314 6.1185e-10 -6.13403e-10 7.31509e-10 -2.90554 0.965183 -0.102902 6.11847e-10 -6.13403e-10 7.31506e-10 -10.2786 0.731801 -0.0259123 6.11858e-10 -6.13404e-10 7.31501e-10 -2.22167 -0.733487 0.20892 -2.03217e-16 0.0 -3.88251e-19 11.9562 -18.2211 8.79112 -0.244517 39.8535 1.13132 -21.4505 -28.9166 -34.7976 2.03217e-16 0.0 3.88251e-19 -0.814675 -14.3384 7.23475 0.283249 41.9553 -1.32471 20.4057 -29.6616 32.2612
-130.05 81.1344 2.58214 -888.868 80.7487 910.274 2.6818 8.12592 -2.28489 -0.380387 1.1113 -0.486469 5.1239 6.54097 1.06825 -3.68922 -5.40316 1.60402 -0.0 0.0 0.0 -0.0 0.0 0.0 7.05183e-14 1.557e-13 -3.22777e-13 82.6713 35.0078 1.45657 -11.458 -5.07575 20.5657 -0.12803 -10.1494 -1.44166 5.14721e-10 2.85824e-10 -3.60172e-09 9.10183e-10 4.96946e-10 -6.22249e-09 5.14727e-10 2.85818e-10 -3.60173e-09 7.73091 5.47488 0.417314 5.14724e-10 2.85818e-10 -3.60172e-09 2.90554 0.965183 0.102902 5.14725e-10 2.85817e-10 -3.60172e-09 10.2786 0.731801 0.0259123 5.14713e-10 2.85818e-10 -3.60171e-09 2.22167 -0.733487 -0.20892 7.05738e-14 1.55697e-13 -3.22826e-13 -66.6309 39.2683 -19.177 14.9164 -7.71815 -27.4167 0.010785 -2.96375 0.416903 5.44199e-10 -6.17711e-10 8.56396e-10 9.46141e-10 -1.06838e-09 1.48033e-09 5.44192e-10 -6.17714e-10 8.56406e-10 -7.73091 5.47488 -0.417314 5.44197e-10 -6.17717e-10 8.56396e-10 -2.90554 0.965183 -0.102902 5.44194e-10 -6.17718e-10 8.56395e-10 -10.2786 0.731801 -0.0259123 5.44205e-10 -6.17719e-10 8.5639e-10 -2.22167 -0.733487 0.20892 -2.03217e-16 0.0 -3.88251e-19 12.5508 -17.7775 8.98623 -0.236033 39.4209 1.11121 -21.4584 -28.0473 -35.4497 2.03217e-16 0.0 3.88251e-19 0.26026 -15.1203 7.65196 0.322955 43.5332 -1.32947 19.0101 -28.1663 31.1715
-129.866 81.1058 2.94286 -883.942 81.6106 915.189 3.19053 8.19445 -1.99239 -0.463032 1.0543 -0.387081 5.18379 6.55319 1.14779 -3.8005 -5.46784 1.73711 -0.0 0.0 0.0 -0.0 0.0 0.0 5.28744e-14 4.33206e-14 -2.34246e-13 82.6494 34.8073 1.52987 -11.5442 -5.13293 20.7331 -0.149746 -10.8613 -1.54562 4.86802e-10 6.71417e-11 -3.40483e-09 8.60168e-10 1.1795e-10 -5.8818e-09 4.86808e-10 6.71388e-11 -3.40484e-09 7.73091 5.47488 0.417314 4.86803e-10 6.71377e-11 -3.40483e-09 2.90554 0.965183 0.102902 4.86807e-10 6.71379e-11 -3.40483e-09 10.2786 0.731801 0.0259123 4.86797e-10 6.71381e-11 -3.40483e-09 2.22167 -0.733487 -0.20892 5.29101e-14 4.33182e-14 -2.3428e-13 -67.0804 39.7596 -19.056 15.4625 -8.20259 -28.5318 0.00629668 -2.48683 0.349676 4.41392e-10 -6.4261e-10 7.06468e-10 7.68677e-10 -1.11152e-09 1.22063e-09 4.41384e-10 -6.42612e-10 7.06477e-10 -7.73091 5.47488 -0.417314 4.41389e-10 -6.42615e-10 7.06468e-10 -2.90554 0.965183 -0.102902 4.41386e-10 -6.42616e-10 7.06466e-10 -10.2786 0.731801 -0.0259123 4.41398e-10 -6.42617e-10 7.06461e-10 -2.22167 -0.733487 0.20892 -2.03217e-16 0.0 -3.88251e-19 12.9941 -17.396 9.33789 -0.228766 39.036 1.09178 -21.415 -28.3028 -35.2469 2.03217e-16 0.0 3.88251e-19 1.11967 -15.8358 8.01708 0.365879 45.0885 -1.33966 17.7229 -26.9834 29.9863
